<svg width="24" height="24" viewBox="0 0 24 24" fill="none" xmlns="http://www.w3.org/2000/svg">
<path d="M20 20.975H21" stroke="white" stroke-width="1.25" stroke-linecap="round"/>
<path d="M8.05 10H7.7C7.3134 10 7 10.4477 7 11V17C7 17.5523 7.3134 18 7.7 18H8.05C8.4366 18 8.75 17.5523 8.75 17V11C8.75 10.4477 8.4366 10 8.05 10Z" fill="white"/>
<path d="M13.05 6H12.7C12.3134 6 12 6.44772 12 7V17C12 17.5523 12.3134 18 12.7 18H13.05C13.4366 18 13.75 17.5523 13.75 17V7C13.75 6.44772 13.4366 6 13.05 6Z" fill="white"/>
<path d="M18.05 3H17.7C17.3134 3 17 3.44772 17 4V17C17 17.5523 17.3134 18 17.7 18H18.05C18.4366 18 18.75 17.5523 18.75 17V4C18.75 3.44772 18.4366 3 18.05 3Z" fill="white"/>
<path d="M4.01073 3V16.1017C3.8896 18.3477 4.73752 21.3424 9.46162 20.9681H20" stroke="white" stroke-width="1.25"/>
<path d="M4 3V2" stroke="white" stroke-width="1.25" stroke-linecap="round"/>
</svg>
