<svg width="45" height="41" viewBox="0 0 45 41" fill="none" xmlns="http://www.w3.org/2000/svg">
<path d="M22 13V21" stroke="white" stroke-width="3"/>
<path d="M8 21V32.857C8 36.7234 8 36.9812 14.8611 36.9812C17.75 36.9812 20.8692 36.9388 23.8889 36.9812C26.9086 37.0235 29.3055 36.9812 31.1111 36.9812C34 36.9812 34 36.2079 34 32.857V21" stroke="white" stroke-width="1.5"/>
<path d="M36.873 21H5.01738C3.81528 21 3.51477 13 5.01738 13H36.873C38.3757 13 38.3757 21 36.873 21Z" stroke="white" stroke-width="1.5"/>
<path d="M9.41981 10.1481C11.0431 12.1037 18.483 12.8642 22 13C21.0531 12.321 19.5495 9.51344 17.5361 6.48148C15.1012 2.81481 12.6663 2.00001 11.8547 2C10.9473 1.99999 8.70968 2.81481 8.20237 4.85185C8.10092 5.25925 7.39076 7.70369 9.41981 10.1481Z" stroke="white" stroke-width="1.5"/>
<path d="M33.6816 10.1481C32.1743 12.1037 25.2658 12.8642 22 13C22.8793 12.321 24.2755 9.51344 26.1451 6.48148C28.406 2.81481 30.667 2.00001 31.4206 2C32.2632 1.99999 34.341 2.81481 34.8121 4.85185C34.9063 5.25925 35.5657 7.70369 33.6816 10.1481Z" stroke="white" stroke-width="1.5"/>
</svg>
