<svg width="24" height="24" viewBox="0 0 24 24" fill="none" xmlns="http://www.w3.org/2000/svg">
<path d="M4 8C4 7.44772 4.44772 7 5 7H19C19.5523 7 20 7.44772 20 8V10C19.4477 10 19 10.4477 19 11C19 11.5523 19.4477 12 20 12V14C19.4477 14 19 14.4477 19 15C19 15.5523 19.4477 16 20 16V18C20 18.5523 19.5523 19 19 19H5C4.44772 19 4 18.5523 4 18V16C4.55228 16 5 15.5523 5 15C5 14.4477 4.55228 14 4 14V12C4.55228 12 5 11.5523 5 11C5 10.4477 4.55228 10 4 10V8Z" stroke="white" stroke-linecap="round" stroke-linejoin="round"/>
<path d="M8 16H16" stroke="white" stroke-linecap="round"/>
<path d="M8.93313 12.537V13.7745C8.93313 13.8552 8.91113 13.9193 8.86713 13.967C8.82313 14.011 8.76446 14.033 8.69113 14.033C8.61779 14.033 8.55913 14.011 8.51513 13.967C8.47113 13.9193 8.44913 13.8552 8.44913 13.7745V10.348C8.44913 10.2747 8.46929 10.2123 8.50963 10.161C8.54996 10.1097 8.61596 10.084 8.70763 10.084H9.66463C9.86263 10.084 10.0386 10.117 10.1926 10.183C10.3503 10.2453 10.4841 10.3333 10.5941 10.447C10.7041 10.557 10.7885 10.6872 10.8471 10.8375C10.9058 10.9842 10.9351 11.1437 10.9351 11.316C10.9351 11.4847 10.9021 11.6442 10.8361 11.7945C10.7738 11.9412 10.6858 12.0695 10.5721 12.1795C10.4621 12.2895 10.3301 12.3775 10.1761 12.4435C10.0258 12.5058 9.86079 12.537 9.68113 12.537H8.93313ZM8.93313 10.502V12.119H9.64813C9.76913 12.119 9.87729 12.0988 9.97263 12.0585C10.0716 12.0145 10.156 11.9577 10.2256 11.888C10.299 11.8147 10.354 11.7285 10.3906 11.6295C10.431 11.5305 10.4511 11.426 10.4511 11.316C10.4511 11.2207 10.4365 11.1253 10.4071 11.03C10.3778 10.931 10.3301 10.843 10.2641 10.766C10.1981 10.689 10.112 10.6267 10.0056 10.579C9.90296 10.5277 9.77646 10.502 9.62613 10.502H8.93313ZM12.2912 10.051C12.4122 10.051 12.5295 10.0638 12.6432 10.0895C12.7605 10.1115 12.8632 10.1427 12.9512 10.183C13.0428 10.2233 13.1162 10.2728 13.1712 10.3315C13.2262 10.3865 13.2537 10.4452 13.2537 10.5075C13.2537 10.5662 13.2335 10.6175 13.1932 10.6615C13.1565 10.7018 13.107 10.722 13.0447 10.722C12.9897 10.722 12.942 10.7092 12.9017 10.6835C12.8613 10.6578 12.8137 10.6285 12.7587 10.5955C12.7073 10.5625 12.6432 10.5332 12.5662 10.5075C12.4928 10.4818 12.3957 10.469 12.2747 10.469C12.095 10.469 11.9465 10.5203 11.8292 10.623C11.7118 10.7257 11.6532 10.8595 11.6532 11.0245C11.6532 11.1675 11.699 11.2812 11.7907 11.3655C11.8823 11.4462 11.996 11.5158 12.1317 11.5745C12.271 11.6332 12.4213 11.6882 12.5827 11.7395C12.744 11.7908 12.8925 11.8587 13.0282 11.943C13.1675 12.0237 13.283 12.1318 13.3747 12.2675C13.4663 12.3995 13.5122 12.5755 13.5122 12.7955C13.5122 12.9568 13.4828 13.1127 13.4242 13.263C13.3655 13.4133 13.2793 13.5453 13.1657 13.659C13.0557 13.7727 12.9182 13.8643 12.7532 13.934C12.5882 14 12.3993 14.033 12.1867 14.033C12.0583 14.033 11.9282 14.022 11.7962 14C11.6678 13.9743 11.5505 13.9413 11.4442 13.901C11.3415 13.857 11.2572 13.8075 11.1912 13.7525C11.1288 13.6938 11.0977 13.6297 11.0977 13.56C11.0977 13.494 11.1142 13.4372 11.1472 13.3895C11.1802 13.3382 11.2315 13.3125 11.3012 13.3125C11.3415 13.3125 11.3873 13.329 11.4387 13.362C11.49 13.3913 11.5505 13.4262 11.6202 13.4665C11.6935 13.5032 11.776 13.538 11.8677 13.571C11.9593 13.6003 12.0675 13.615 12.1922 13.615C12.3168 13.615 12.4287 13.5948 12.5277 13.5545C12.6267 13.5105 12.711 13.4518 12.7807 13.3785C12.8503 13.3052 12.9035 13.2208 12.9402 13.1255C12.9768 13.0302 12.9952 12.9275 12.9952 12.8175C12.9952 12.6635 12.9493 12.5425 12.8577 12.4545C12.766 12.3665 12.6505 12.2932 12.5112 12.2345C12.3755 12.1758 12.227 12.1208 12.0657 12.0695C11.9043 12.0182 11.754 11.954 11.6147 11.877C11.479 11.7963 11.3653 11.6937 11.2737 11.569C11.182 11.4407 11.1362 11.2702 11.1362 11.0575C11.1362 10.9438 11.1618 10.8283 11.2132 10.711C11.2682 10.59 11.3452 10.4818 11.4442 10.3865C11.5432 10.2875 11.6642 10.2068 11.8072 10.1445C11.9502 10.0822 12.1115 10.051 12.2912 10.051ZM14.4331 12.2675V13.7745C14.4331 13.8552 14.4111 13.9193 14.3671 13.967C14.3231 14.011 14.2645 14.033 14.1911 14.033C14.1178 14.033 14.0591 14.011 14.0151 13.967C13.9711 13.9193 13.9491 13.8552 13.9491 13.7745V10.348C13.9491 10.2747 13.9693 10.2123 14.0096 10.161C14.05 10.1097 14.116 10.084 14.2076 10.084H15.5826C15.6523 10.084 15.7091 10.1023 15.7531 10.139C15.7971 10.1757 15.8191 10.2325 15.8191 10.3095C15.8191 10.3865 15.7971 10.4433 15.7531 10.48C15.7091 10.5167 15.6523 10.535 15.5826 10.535H14.4331V11.8165H15.4506C15.5203 11.8165 15.5771 11.8348 15.6211 11.8715C15.6651 11.9082 15.6871 11.965 15.6871 12.042C15.6871 12.119 15.6651 12.1758 15.6211 12.2125C15.5771 12.2492 15.5203 12.2675 15.4506 12.2675H14.4331Z" fill="white"/>
</svg>
